<svg fill="none" xmlns="http://www.w3.org/2000/svg" viewBox="0 0 21 21">
  <path d="M19.49 0H1.5C.68 0 0 .68 0 1.51V19.5C0 20.32.68 21 1.51 21H19.5c.83 0 1.51-.68 1.51-1.51V1.5C21 .68 20.32 0 19.49 0zM7.45 15.87H4.89V8.18h2.56v7.7zM6.17 7.13h-.02c-.85 0-1.4-.6-1.4-1.33 0-.75.56-1.33 1.44-1.33.87 0 1.41.58 1.43 1.33 0 .74-.56 1.33-1.45 1.33zm10.5 8.74h-2.56v-4.11c0-1.04-.37-1.74-1.3-1.74-.7 0-1.12.47-1.3.93-.07.17-.09.4-.09.63v4.3H8.86s.04-6.98 0-7.7h2.56v1.09c.34-.53.95-1.27 2.3-1.27 1.69 0 2.95 1.1 2.95 3.46v4.41z" fill="#fff"/>
</svg>
