<svg fill="none" xmlns="http://www.w3.org/2000/svg" viewBox="0 0 11 12">
  <path d="M7.535 5.848A3.27 3.27 0 008.667 4.2c.194-.653.179-1.35-.045-1.993A3.274 3.274 0 007.418.608a3.32 3.32 0 00-3.832 0c-.56.395-.98.954-1.204 1.598a3.244 3.244 0 00-.044 1.993 3.27 3.27 0 001.131 1.65A5.496 5.496 0 00.952 7.85 5.423 5.423 0 000 10.91v.545c0 .144.058.283.161.385.103.103.243.16.389.16h9.9a.552.552 0 00.389-.16.542.542 0 00.161-.385v-.545a5.423 5.423 0 00-.95-3.058 5.496 5.496 0 00-2.515-2.004zM3.3 3.276c0-.43.129-.852.37-1.211a2.218 2.218 0 013.385-.33 2.163 2.163 0 01.477 2.377c-.166.398-.448.738-.81.978a2.214 2.214 0 01-2.778-.271A2.171 2.171 0 013.3 3.276zM1.1 10.91c0-1.157.464-2.267 1.289-3.085A4.42 4.42 0 015.5 6.548a4.42 4.42 0 013.111 1.277A4.343 4.343 0 019.9 10.91H1.1z" fill="#20BFEF"/>
</svg>
